<?xml version="1.0" standalone="no"?>
<!DOCTYPE svg PUBLIC "-//W3C//DTD SVG 20010904//EN"
 "http://www.w3.org/TR/2001/REC-SVG-20010904/DTD/svg10.dtd">
<svg version="1.0" xmlns="http://www.w3.org/2000/svg"
 width="256.000000pt" height="256.000000pt" viewBox="0 0 256.000000 256.000000"
 preserveAspectRatio="xMidYMid meet">
<metadata>
Created by potrace 1.14, written by Peter Selinger 2001-2017
</metadata>
<g transform="translate(0.000000,256.000000) scale(0.100000,-0.100000)"
fill="#000000" stroke="none">
<path d="M1646 2544 c-9 -8 -17 -23 -17 -32 -4 -49 -7 -116 -13 -301 -4 -113
-8 -206 -10 -208 -1 -2 -25 -6 -52 -9 -27 -3 -60 -7 -74 -9 -14 -2 -81 -7
-150 -10 -69 -4 -143 -8 -165 -10 -22 -2 -127 -6 -232 -10 l-193 -7 -1 48 c-3
86 -14 145 -38 199 -26 56 -42 74 -71 78 -16 3 -26 12 -31 31 -17 63 -92 129
-157 139 -81 13 -150 -30 -219 -136 -39 -59 -47 -80 -49 -125 -1 -29 2 -67 8
-83 13 -38 82 -97 122 -104 62 -12 72 -12 116 3 56 19 105 56 142 106 l28 39
0 -29 c1 -16 3 -62 6 -101 l6 -73 -54 -1 c-170 -1 -313 -27 -405 -71 -48 -24
-59 -49 -32 -74 15 -13 24 -15 46 -6 50 19 128 26 368 33 l80 2 -1 -239 c-1
-278 -9 -542 -16 -549 -4 -4 -272 -61 -379 -81 -14 -3 -55 -12 -90 -22 -61
-16 -64 -19 -64 -47 0 -28 2 -30 40 -29 37 1 165 11 227 19 14 2 68 6 120 10
51 3 105 8 121 11 l27 4 1 -137 c1 -150 3 -210 14 -318 14 -148 23 -214 40
-295 3 -14 7 -36 10 -50 12 -67 18 -81 35 -90 28 -15 48 -12 71 11 21 21 22
58 4 150 -9 46 -20 137 -30 254 -10 106 -16 474 -8 478 4 3 69 8 143 12 74 3
162 8 195 10 33 2 114 6 180 9 66 3 182 8 258 12 l138 6 -2 -28 c-1 -28 7
-228 16 -379 2 -38 7 -144 11 -235 3 -91 10 -173 15 -182 13 -24 65 -24 78 0
9 17 19 324 22 649 0 95 4 175 8 177 3 2 74 7 156 11 83 4 175 8 205 10 30 2
102 6 160 10 162 10 181 13 201 31 11 10 19 27 19 40 0 21 -22 53 -38 55 -4 0
-15 2 -25 4 -36 7 -325 18 -501 19 l-180 1 -2 55 c-1 30 -5 200 -8 378 l-5
323 202 -5 c111 -2 213 -7 227 -10 22 -5 47 -10 114 -22 21 -4 42 10 56 37 21
39 -68 103 -179 129 -62 15 -227 18 -346 7 -73 -6 -81 -5 -81 11 -2 48 -17
321 -19 347 -2 17 -3 54 -4 83 -2 77 -53 119 -95 76z m-1168 -241 c50 -68 -10
-191 -101 -207 -36 -6 -85 11 -97 34 -23 43 -11 73 53 142 62 66 64 68 98 58
19 -6 40 -18 47 -27z m1133 -540 c0 -115 4 -272 13 -495 l5 -138 -52 -1 c-116
-3 -343 -16 -402 -24 -16 -2 -57 -7 -90 -10 -128 -12 -183 -18 -265 -30 -47
-7 -88 -11 -91 -9 -15 9 4 751 19 765 4 4 126 10 272 13 146 4 281 8 300 10
19 3 69 7 110 11 41 3 75 7 76 8 2 1 25 3 53 5 l51 3 1 -108z"/>
<path d="M1350 1673 c-28 -19 -75 -67 -97 -100 -19 -29 -26 -29 -60 3 -45 42
-110 84 -130 84 -23 0 -43 -18 -43 -39 0 -9 32 -48 71 -87 l71 -71 -30 -34
c-74 -85 -89 -160 -35 -174 25 -6 34 0 88 59 l60 65 44 -48 c69 -77 143 -100
167 -52 17 34 7 56 -45 98 -25 20 -57 47 -70 60 -27 26 -28 25 51 105 21 21
42 47 48 57 35 66 -27 117 -90 74z"/>
<path d="M2305 798 c-14 -11 -48 -53 -75 -93 -27 -41 -53 -76 -58 -79 -4 -2
-41 17 -82 44 -41 26 -92 55 -112 63 -35 15 -39 14 -60 -2 -34 -29 -14 -58 95
-135 l95 -67 -54 -89 c-30 -49 -64 -119 -76 -156 -20 -60 -20 -69 -7 -93 8
-15 25 -27 39 -29 22 -3 29 6 58 65 37 76 124 223 132 223 3 0 22 -16 43 -35
37 -34 95 -65 123 -65 7 0 21 11 30 25 15 23 14 27 -6 62 -17 30 -60 70 -119
110 -7 5 74 115 102 139 48 40 58 102 19 120 -33 15 -61 12 -87 -8z"/>
<path d="M1220 730 c-19 -11 -49 -27 -66 -35 -45 -23 -72 -55 -93 -111 -40
-105 -8 -217 77 -274 157 -104 372 10 372 198 0 100 -69 193 -168 226 -60 21
-80 20 -122 -4z m113 -125 c23 -10 55 -73 53 -105 -3 -37 -23 -69 -59 -90 -62
-38 -126 -20 -156 44 -22 47 -21 81 5 125 16 26 24 30 68 33 61 4 66 3 89 -7z"/>
<path d="M216 624 c-9 -8 -16 -20 -16 -25 0 -5 -11 -9 -24 -9 -36 0 -88 -41
-113 -90 -93 -182 39 -399 218 -359 58 13 91 33 126 73 41 46 57 97 56 178 -1
102 -54 190 -138 229 -49 23 -89 24 -109 3z m87 -132 c47 -41 60 -136 28 -186
-70 -106 -191 -54 -191 81 0 44 26 119 51 149 7 9 20 7 52 -8 23 -11 50 -28
60 -36z"/>
</g>
</svg>
